<svg width="94" height="47" viewBox="0 0 94 47" fill="none" xmlns="http://www.w3.org/2000/svg">
<path fill-rule="evenodd" clip-rule="evenodd" d="M26.189 40.2216C26.189 40.7321 25.791 41.1459 25.3002 41.1459H11.6729C11.1821 41.1459 10.7842 40.7321 10.7842 40.2216C10.7842 39.7112 11.1821 39.2974 11.6729 39.2974H25.3002C25.791 39.2974 26.189 39.7112 26.189 40.2216Z" fill="white"/>
<path fill-rule="evenodd" clip-rule="evenodd" d="M23.819 43.3026C23.819 43.8131 23.4211 44.2269 22.9302 44.2269H14.0429C13.552 44.2269 13.1541 43.8131 13.1541 43.3026C13.1541 42.7921 13.552 42.3783 14.0429 42.3783H22.9302C23.4211 42.3783 23.819 42.7921 23.819 43.3026Z" fill="white"/>
<path fill-rule="evenodd" clip-rule="evenodd" d="M21.449 46.2295C21.449 46.6549 21.1174 46.9997 20.7084 46.9997L16.2647 46.9997C15.8557 46.9997 15.5241 46.6549 15.5241 46.2295C15.5241 45.8041 15.8557 45.4593 16.2647 45.4593L20.7084 45.4593C21.1174 45.4593 21.449 45.8041 21.449 46.2295Z" fill="white"/>
<path fill-rule="evenodd" clip-rule="evenodd" d="M18.4857 30.81C25.292 30.81 30.8095 25.2925 30.8095 18.4862C30.8095 11.68 25.292 6.1624 18.4857 6.1624C11.6795 6.1624 6.16191 11.68 6.16191 18.4862C6.16191 25.2925 11.6795 30.81 18.4857 30.81ZM18.4857 36.9719C28.6951 36.9719 36.9714 28.6956 36.9714 18.4862C36.9714 8.27683 28.6951 0.000488281 18.4857 0.000488281C8.27634 0.000488281 0 8.27683 0 18.4862C0 28.6956 8.27634 36.9719 18.4857 36.9719Z" fill="white"/>
<path d="M15.4049 18.1214C15.4049 19.1849 14.5428 20.047 13.4793 20.047C12.4158 20.047 11.5537 19.1849 11.5537 18.1214C11.5537 17.0579 12.4158 16.1958 13.4793 16.1958C14.5428 16.1958 15.4049 17.0579 15.4049 18.1214Z" fill="white"/>
<path d="M20.7966 18.1214C20.7966 19.1849 19.9345 20.047 18.871 20.047C17.8075 20.047 16.9454 19.1849 16.9454 18.1214C16.9454 17.0579 17.8075 16.1958 18.871 16.1958C19.9345 16.1958 20.7966 17.0579 20.7966 18.1214Z" fill="white"/>
<path d="M26.1882 18.1214C26.1882 19.1849 25.3261 20.047 24.2626 20.047C23.1992 20.047 22.337 19.1849 22.337 18.1214C22.337 17.0579 23.1992 16.1958 24.2626 16.1958C25.3261 16.1958 26.1882 17.0579 26.1882 18.1214Z" fill="white"/>
<path d="M52.4757 25.592V22.2H57.6917C58.7583 22.2 59.5797 21.9333 60.1557 21.4C60.753 20.8453 61.0517 20.088 61.0517 19.128C61.0517 18.2533 60.753 17.528 60.1557 16.952C59.5797 16.3547 58.7583 16.056 57.6917 16.056H52.4757V12.504H58.0757C59.5263 12.504 60.7957 12.792 61.8837 13.368C62.993 13.9227 63.8463 14.6907 64.4437 15.672C65.0623 16.6533 65.3717 17.784 65.3717 19.064C65.3717 20.3867 65.0623 21.5387 64.4437 22.52C63.8463 23.48 62.993 24.2373 61.8837 24.792C60.7743 25.3253 59.4837 25.592 58.0117 25.592H52.4757ZM49.2757 35V12.504H53.6277V35H49.2757ZM61.5637 35L54.1397 25.272L58.1397 24.024L66.8437 35H61.5637ZM69.2964 35V19.544H73.5204V35H69.2964ZM71.4084 17.048C70.7258 17.048 70.1604 16.824 69.7124 16.376C69.2644 15.9067 69.0404 15.3307 69.0404 14.648C69.0404 13.9867 69.2644 13.4213 69.7124 12.952C70.1604 12.4827 70.7258 12.248 71.4084 12.248C72.1124 12.248 72.6778 12.4827 73.1044 12.952C73.5524 13.4213 73.7764 13.9867 73.7764 14.648C73.7764 15.3307 73.5524 15.9067 73.1044 16.376C72.6778 16.824 72.1124 17.048 71.4084 17.048ZM84.4979 35.32C82.9406 35.32 81.5326 34.968 80.2739 34.264C79.0366 33.5387 78.0446 32.568 77.2979 31.352C76.5726 30.1147 76.2099 28.7387 76.2099 27.224C76.2099 25.7093 76.5726 24.3547 77.2979 23.16C78.0233 21.944 79.0153 20.984 80.2739 20.28C81.5326 19.5547 82.9299 19.192 84.4659 19.192C86.0446 19.192 87.4526 19.5547 88.6899 20.28C89.9486 20.984 90.9406 21.944 91.6659 23.16C92.3913 24.3547 92.7539 25.7093 92.7539 27.224C92.7539 28.7387 92.3913 30.1147 91.6659 31.352C90.9406 32.568 89.9486 33.5387 88.6899 34.264C87.4526 34.968 86.0553 35.32 84.4979 35.32ZM84.4659 31.416C85.2553 31.416 85.9486 31.2453 86.5459 30.904C87.1646 30.5413 87.6339 30.0507 87.9539 29.432C88.2953 28.792 88.4659 28.0667 88.4659 27.256C88.4659 26.4453 88.2953 25.7307 87.9539 25.112C87.6126 24.4933 87.1433 24.0133 86.5459 23.672C85.9486 23.3093 85.2553 23.128 84.4659 23.128C83.6979 23.128 83.0153 23.3093 82.4179 23.672C81.8206 24.0133 81.3513 24.4933 81.0099 25.112C80.6686 25.7307 80.4979 26.4453 80.4979 27.256C80.4979 28.0667 80.6686 28.792 81.0099 29.432C81.3513 30.0507 81.8206 30.5413 82.4179 30.904C83.0153 31.2453 83.6979 31.416 84.4659 31.416Z" fill="white"/>
</svg>
